<svg xmlns="http://www.w3.org/2000/svg" viewBox="0 0 200 240" width="200" height="240">
  <defs>
    <linearGradient id="sg" x1="0" y1="0" x2="0" y2="1"><stop offset="0%" stop-color="#029fe4"/><stop offset="100%" stop-color="#005b8e"/></linearGradient>
    <linearGradient id="gg" x1="0" y1="0" x2="1" y2="1"><stop offset="0%" stop-color="#ffd700"/><stop offset="100%" stop-color="#ff9900"/></linearGradient>
  </defs>
  <path d="M 100 10 C 140 10, 185 25, 185 70 C 185 145, 150 195, 100 225 C 50 195, 15 145, 15 70 C 15 25, 60 10, 100 10 Z" fill="url(#sg)" stroke="#ffffff" stroke-width="4"/>
  <polygon points="100,75 145,145 55,145" fill="#1b4d3e" />
  <path d="M 30 145 Q 100 160 170 145 L 170 170 Q 100 200 30 170 Z" fill="#0055a5"/>
  <polygon points="100,30 104,42 117,42 106,50 110,62 100,54 90,62 94,50 83,42 96,42" fill="url(#gg)"/>
  <text x="100" y="180" font-family="sans-serif" font-size="14" font-weight="900" fill="#ffffff" text-anchor="middle">SINJAI</text>
</svg>